<svg width="326" height="300" viewBox="0 0 326 300" fill="none" xmlns="http://www.w3.org/2000/svg">
<path fill-rule="evenodd" clip-rule="evenodd" d="M338.952 -110.105C413.096 -114.72 498.105 -114.863 551.169 -62.8739C603.164 -11.9315 576.717 75.425 599.037 144.711C621.267 213.716 710.141 273.963 681.076 340.38C651.177 408.705 542.103 382.426 478.192 420.864C423.346 453.851 402.538 538.87 338.952 546.145C275.213 553.439 223.116 497.436 174.462 455.619C129.521 416.992 98.3802 368.905 71.3685 316.16C38.9764 252.91 -11.9615 189.478 2.53806 119.91C17.3494 48.8459 85.1764 3.37392 145.1 -37.5973C203.479 -77.5126 268.368 -105.711 338.952 -110.105Z" fill="#00AF68"/>
</svg>
